<svg width="53" height="55" viewBox="0 0 53 55" fill="none" xmlns="http://www.w3.org/2000/svg">
<path d="M32.3569 0.793188C30.6389 2.36815 29.1216 3.94158 27.7258 5.75439C26.2895 7.4874 25.0143 9.33934 23.9002 11.3102C22.7456 13.2013 21.7926 15.291 20.9197 17.3402C20.0872 19.4691 19.3754 21.6371 18.9047 23.8834C18.4341 26.1298 18.084 28.4152 18.0146 30.6585C17.9857 32.9815 18.0369 35.2639 18.4094 37.5839C18.7413 39.8241 19.3944 42.1019 20.2473 44.178C21.1001 46.254 22.3137 48.2473 23.7269 50.0387C24.2112 50.5957 25.0948 50.7492 25.6543 50.2644C26.0942 49.9406 26.2118 49.379 26.1694 48.8988L26.1289 48.819C25.6773 46.7399 24.9856 44.7828 24.4945 42.8241C24.0035 40.8654 23.5925 38.8661 23.302 36.9059C23.0116 34.9457 22.8813 32.9042 22.8716 30.9019C22.942 28.8589 23.1329 26.855 23.4444 24.8902C24.1475 20.92 25.5731 16.9844 27.4415 13.3258C29.3089 9.4669 31.6191 5.88499 34.2525 2.74117L34.3326 2.70051C34.8515 2.13589 34.7271 1.29581 34.1627 0.779463C33.6389 0.342907 32.8768 0.428797 32.3569 0.793188Z" fill="white"/>
<path d="M7.58646 31.9384C8.43928 34.0144 9.45125 35.809 10.6639 37.6019C11.836 39.3151 13.1287 41.0674 14.541 42.6587C15.9533 44.2499 17.4051 45.7207 19.0171 47.1101C20.629 48.4996 22.2806 49.7686 24.0121 50.9969C24.8977 51.5509 26.0206 51.3822 26.6987 50.536C26.8183 50.3749 26.8974 50.134 27.017 49.9729L27.6864 47.3246C27.9632 46.4814 28.1995 45.5585 28.4763 44.7154C29.03 43.0291 29.6637 41.3022 30.3379 39.6551C31.0121 38.008 31.7664 36.3202 32.6818 34.7513C33.0792 33.9473 33.5972 33.1825 34.0352 32.4583C34.4731 31.734 35.0711 30.9285 35.4695 30.3248L35.5496 30.2841C36.0685 29.7195 35.9441 28.8794 35.2997 28.4037C34.7759 27.9672 33.8932 28.0139 33.4543 28.5379C32.7357 29.3043 32.2177 30.0691 31.6196 30.8747C31.0216 31.6802 30.5441 32.5248 30.0261 33.2897C29.0307 34.8992 28.1162 36.6683 27.3619 38.3561C26.5276 40.0845 25.8138 41.8521 25.1 43.6197C24.7431 44.5035 24.3862 45.3873 24.1499 46.3102L23.1998 49.0007L26.1642 47.8968C24.5136 46.828 22.8631 45.7593 21.3321 44.5294C19.8012 43.2995 18.3098 41.9492 16.939 40.638C15.6077 39.2064 14.3565 37.7341 13.1449 36.1413C12.0538 34.5877 10.8817 32.8745 10.1514 31.2381L10.1109 31.1583C9.78677 30.52 9.02276 30.2054 8.34173 30.4508C7.57966 30.5367 7.26232 31.3001 7.58646 31.9384Z" fill="white"/>
</svg>
