<svg width="56" height="49" viewBox="0 0 56 49" fill="none" xmlns="http://www.w3.org/2000/svg">
<path d="M54.702 42.1106C56.4527 45.1725 54.2551 49 50.7584 49H5.24108C1.7376 49 -0.449838 45.1666 1.29749 42.1106L24.0564 2.29544C25.808 -0.767921 30.1951 -0.762371 31.9436 2.29544L54.702 42.1106ZM28 33.8789C25.5903 33.8789 23.6369 35.8499 23.6369 38.2812C23.6369 40.7126 25.5903 42.6836 28 42.6836C30.4097 42.6836 32.3631 40.7126 32.3631 38.2812C32.3631 35.8499 30.4097 33.8789 28 33.8789ZM23.8576 18.0548L24.5612 31.0704C24.5941 31.6795 25.0932 32.1562 25.6977 32.1562H30.3023C30.9068 32.1562 31.4059 31.6795 31.4388 31.0704L32.1424 18.0548C32.178 17.3969 31.6589 16.8438 31.0059 16.8438H24.994C24.3411 16.8438 23.8221 17.3969 23.8576 18.0548Z" fill="#1E1A42"/>
</svg>
